<?xml version="1.0" standalone="no"?>
<!DOCTYPE svg PUBLIC "-//W3C//DTD SVG 20010904//EN"
 "http://www.w3.org/TR/2001/REC-SVG-20010904/DTD/svg10.dtd">
<svg version="1.0" xmlns="http://www.w3.org/2000/svg"
 width="1280.000000pt" height="902.000000pt" viewBox="0 0 1280.000000 902.000000"
 preserveAspectRatio="xMidYMid meet">
<g transform="translate(0.000000,902.000000) scale(0.100000,-0.100000)"
fill="#fcdf78" stroke="none">
<path d="M2600 8389 c-846 -72 -1439 -356 -1760 -842 -284 -430 -305 -1099
-49 -1564 169 -307 481 -562 874 -716 456 -178 1164 -234 1649 -129 74 16 81
20 120 66 40 47 41 50 38 115 -4 104 -11 120 -70 154 l-52 29 -138 -13 c-199
-20 -568 -17 -712 5 -603 93 -1019 423 -1116 886 -24 114 -24 332 0 455 51
260 206 507 441 704 371 309 806 453 1370 453 758 0 1192 -253 1369 -796 38
-116 64 -266 77 -445 30 -403 -50 -1297 -241 -2696 -155 -1139 -223 -1829
-251 -2565 -14 -370 -4 -518 50 -717 14 -52 107 -129 143 -119 28 7 175 125
368 296 173 153 530 513 689 695 786 899 1507 2056 2141 3438 62 136 118 247
123 247 6 0 8 -59 3 -167 -4 -93 -11 -271 -16 -398 -31 -770 -36 -1861 -10
-2295 37 -623 122 -1191 239 -1592 50 -169 68 -215 89 -223 9 -4 48 -9 85 -12
l69 -6 125 124 c738 732 1466 1734 2125 2924 653 1179 1075 2219 1312 3231
130 557 175 1067 111 1279 -45 151 -162 220 -281 166 -23 -11 -136 -84 -250
-163 -115 -79 -236 -160 -269 -180 -110 -67 -172 -153 -182 -252 -3 -28 3
-142 12 -251 48 -542 -32 -1316 -205 -1990 -312 -1217 -927 -2411 -1825 -3540
-162 -204 -236 -288 -246 -278 -16 16 -54 254 -78 488 -62 590 -60 1651 4
2705 43 696 111 1358 236 2305 39 297 45 508 15 568 -10 20 -32 47 -49 59 -59
42 -98 37 -401 -51 -153 -45 -289 -89 -302 -98 -96 -62 -150 -336 -173 -873
l-9 -205 -115 -285 c-605 -1498 -1271 -2725 -2018 -3720 -286 -380 -572 -721
-591 -702 -7 7 -5 86 6 239 50 675 128 1387 261 2358 237 1733 262 2156 156
2578 -71 280 -194 504 -383 696 -339 343 -838 535 -1588 612 -138 14 -786 20
-920 8z"/>
</g>
</svg>
