<svg width="1920" height="500" viewBox="0 0 1920 500" fill="none" xmlns="http://www.w3.org/2000/svg">
<path fill-rule="evenodd" clip-rule="evenodd" d="M0 437.593L80 416.986C160 396.379 320 355.164 480 292.257C640 229.35 800 146.921 960 167.528C1120 188.136 1280 312.864 1440 303.103C1600 292.257 1760 146.921 1840 73.1681L1920 0.5V500.5H1840C1760 500.5 1600 500.5 1440 500.5C1280 500.5 1120 500.5 960 500.5C800 500.5 640 500.5 480 500.5C320 500.5 160 500.5 80 500.5H0V437.593Z" fill="#FADC6D"/>
</svg>
